<?xml version="1.0" standalone="no"?>
<!DOCTYPE svg PUBLIC "-//W3C//DTD SVG 20010904//EN"
 "http://www.w3.org/TR/2001/REC-SVG-20010904/DTD/svg10.dtd">
<svg version="1.0" xmlns="http://www.w3.org/2000/svg"
 width="225.000000pt" height="225.000000pt" viewBox="0 0 225.000000 225.000000"
 preserveAspectRatio="xMidYMid meet">

<g transform="translate(0.000000,225.000000) scale(0.100000,-0.100000)"
fill="#000000" stroke="none">
<path d="M953 2105 c-597 -108 -962 -718 -772 -1290 109 -328 361 -562 707
-657 111 -31 363 -31 474 0 346 95 598 329 707 657 132 399 -4 841 -340 1100
-212 164 -513 238 -776 190z m353 -128 c4 -4 5 -9 3 -12 -19 -18 -1005 -581
-1007 -575 -5 13 44 127 84 193 52 85 202 234 289 285 79 46 180 87 270 107
62 15 347 16 361 2z m253 -99 c53 -31 53 -31 30 -44 -13 -7 -249 -143 -524
-302 -401 -233 -500 -294 -500 -310 0 -15 71 -72 280 -222 154 -111 288 -210
298 -219 17 -17 5 -25 -262 -180 -227 -131 -284 -160 -299 -152 -39 21 -163
163 -205 236 -25 41 -59 119 -77 173 -29 85 -34 113 -38 232 -2 74 0 150 5
169 8 32 37 50 573 361 l565 327 50 -19 c28 -11 74 -33 104 -50z m196 -160
c93 -98 152 -196 196 -326 33 -95 33 -101 34 -264 0 -155 -2 -169 -20 -186
-11 -11 -263 -160 -560 -332 l-540 -312 -52 18 c-29 9 -76 30 -104 46 -43 25
-49 32 -38 43 11 9 475 279 779 453 207 117 250 145 250 160 0 10 -116 103
-295 237 -162 121 -294 222 -295 225 0 8 543 320 556 320 7 0 46 -37 89 -82z
m-440 -473 c138 -104 260 -196 273 -206 l22 -17 -79 -46 c-44 -25 -82 -46 -84
-46 -11 0 -552 413 -552 421 0 15 149 98 160 89 6 -4 123 -92 260 -195z m45
-365 c-12 -9 -47 -30 -78 -47 l-57 -32 -288 209 -288 209 68 39 c37 21 77 44
87 49 17 9 60 -20 298 -200 272 -205 279 -212 258 -227z m569 -82 c-40 -104
-100 -191 -198 -288 -110 -109 -196 -162 -341 -211 -84 -28 -111 -33 -230 -36
-74 -3 -152 -1 -173 4 -38 8 -37 8 455 295 271 157 496 287 500 287 4 1 -2
-23 -13 -51z"/>
</g>
</svg>
